<?xml version="1.0" encoding="UTF-8"?>
<svg width="32px" height="32px" viewBox="0 0 32 32" version="1.1" xmlns="http://www.w3.org/2000/svg" xmlns:xlink="http://www.w3.org/1999/xlink">
    <!-- Generator: Sketch 52.4 (67378) - http://www.bohemiancoding.com/sketch -->
    <title>comment-question-outline</title>
    <desc>Created with Sketch.</desc>
    <g id="Symbols" stroke="none" stroke-width="1" fill="none" fill-rule="evenodd">
        <g id="chat/closed" transform="translate(-16.000000, -16.000000)" fill="#FFFFFF" fill-rule="nonzero">
            <g id="comment-question-outline" transform="translate(16.000000, 16.000000)">
                <path d="M3.2,0 C1.4326888,0 0,1.4326888 0,3.2 L0,22.4 C0,24.1673112 1.4326888,25.6 3.2,25.6 L9.6,25.6 L9.6,30.4 C9.6,31.2836556 10.3163444,32 11.2,32 L12,32 C12.4,32 12.8,31.84 13.12,31.536 L19.04,25.6 L28.8,25.6 C30.5673112,25.6 32,24.1673112 32,22.4 L32,3.2 C32,1.424 30.56,0 28.8,0 L3.2,0 Z M3.2,3.2 L28.8,3.2 L28.8,22.4 L17.728,22.4 L12.8,27.328 L12.8,22.4 L3.2,22.4 L3.2,3.2 Z M16.304,5.6 C14.88,5.6 13.744,5.888 12.88,6.464 C12,7.04 11.552,8 11.632,9.104 C-2.864,9.104 7.312,9.104 14.784,9.104 C14.784,8.656 14.944,8.32 15.2,8.096 C15.52,7.872 15.872,7.76 16.304,7.76 C16.8,7.76 17.232,7.888 17.52,8.176 C17.808,8.448 17.952,8.8 17.952,9.28 C17.952,9.728 17.824,10.128 17.6,10.464 C17.328,10.816 16.992,11.104 16.576,11.328 C15.744,11.84 15.2,12.288 14.864,12.672 C14.56,13.056 14.4,13.6 14.4,14.4 L17.6,14.4 C17.6,13.952 17.68,13.6 17.824,13.312 C17.968,13.04 18.24,12.8 18.656,12.56 C19.392,12.224 20,11.776 20.464,11.2 C20.928,10.608 21.168,9.984 21.168,9.28 C21.168,8.16 20.736,7.264 19.872,6.592 C19.008,5.936 17.808,5.6 16.304,5.6 Z M14.4,16 L14.4,19.2 L17.6,19.2 L17.6,16 L14.4,16 Z" id="Shape"></path>
            </g>
        </g>
    </g>
</svg>