
<svg width="24px" height="24px" viewBox="0 0 24 24" version="1.1" xmlns="http://www.w3.org/2000/svg" xmlns:xlink="http://www.w3.org/1999/xlink">
    <g id="Symbols" stroke="none" stroke-width="1" fill="none" fill-rule="evenodd">
        <g id="event/mobile/bottom-block" transform="translate(-21.000000, -101.000000)" fill="#3F51B5">
            <g id="contacts" transform="translate(21.000000, 0.000000)">
                <g id="socials" transform="translate(0.000000, 101.000000)">
                    <path d="M22.1538462,0 L1.84615385,0 C0.828,0 0,0.828 0,1.84615385 L0,22.1538462 C0,23.172 0.828,24 1.84615385,24 L11.5384615,24 C11.7932308,24 12,23.7932308 12,23.5384615 L12,17.0769231 C12,16.8221538 11.7932308,16.6153846 11.5384615,16.6153846 L9.69230769,16.6153846 C9.43753846,16.6153846 9.23076923,16.4086154 9.23076923,16.1538462 L9.23076923,12.4615385 C9.23076923,12.2067692 9.43753846,12 9.69230769,12 L11.5384615,12 C11.7932308,12 12,11.7932308 12,11.5384615 L12,9.69230769 C12,6.89261538 14.2772308,4.61538462 17.0769231,4.61538462 L19.8461538,4.61538462 C20.1009231,4.61538462 20.3076923,4.82215385 20.3076923,5.07692308 L20.3076923,8.76923077 C20.3076923,9.024 20.1009231,9.23076923 19.8461538,9.23076923 L18,9.23076923 C17.2366154,9.23076923 16.6153846,9.852 16.6153846,10.6153846 L16.6153846,11.5384615 C16.6153846,11.7932308 16.8221538,12 17.0769231,12 L19.8461538,12 C19.9790769,12 20.1046154,12.0572308 20.1923077,12.156 C20.28,12.2556923 20.3206154,12.3876923 20.304,12.5187692 L19.8424615,16.2110769 C19.8138462,16.4418462 19.6163077,16.6153846 19.3846154,16.6153846 L17.0769231,16.6153846 C16.8221538,16.6153846 16.6153846,16.8221538 16.6153846,17.0769231 L16.6153846,23.5384615 C16.6153846,23.7932308 16.8221538,24 17.0769231,24 L22.1538462,24 C23.172,24 24,23.172 24,22.1538462 L24,1.84615385 C24,0.828 23.172,0 22.1538462,0" id="Fill-42"></path>
                </g>
            </g>
        </g>
    </g>
</svg>