<?xml version="1.0" encoding="UTF-8"?>
<svg width="8px" height="14px" viewBox="0 0 8 14" version="1.1" xmlns="http://www.w3.org/2000/svg" xmlns:xlink="http://www.w3.org/1999/xlink">
    <!-- Generator: Sketch 52.4 (67378) - http://www.bohemiancoding.com/sketch -->
    <title>ic_hourglass_empty</title>
    <desc>Created with Sketch.</desc>
    <g id="admin" stroke="none" stroke-width="1" fill="none" fill-rule="evenodd">
        <g id="admin/protocols" transform="translate(-688.000000, -322.000000)">
            <g id="cash-queue" transform="translate(408.000000, 189.000000)">
                <g id="waiting-protocol" transform="translate(8.000000, 132.000000)">
                    <g id="ic_hourglass_empty" transform="translate(268.000000, 0.000000)">
                        <g id="Icon-24px">
                            <path d="M4,1.33333333 L4,5.33333333 L4.00666667,5.33333333 L4,5.34 L6.66666667,8 L4,10.6666667 L4.00666667,10.6733333 L4,10.6733333 L4,14.6666667 L12,14.6666667 L12,10.6733333 L11.9933333,10.6733333 L12,10.6666667 L9.33333333,8 L12,5.34 L11.9933333,5.33333333 L12,5.33333333 L12,1.33333333 L4,1.33333333 L4,1.33333333 Z M10.6666667,11 L10.6666667,13.3333333 L5.33333333,13.3333333 L5.33333333,11 L8,8.33333333 L10.6666667,11 L10.6666667,11 Z M8,7.66666667 L5.33333333,5 L5.33333333,2.66666667 L10.6666667,2.66666667 L10.6666667,5 L8,7.66666667 L8,7.66666667 Z" id="Shape" fill-opacity="0.5" fill="#000000"></path>
                            <polygon id="Shape" points="0 0 16 0 16 16 0 16"></polygon>
                        </g>
                    </g>
                </g>
            </g>
        </g>
    </g>
</svg>