
<svg width="20px" height="20px" viewBox="0 0 20 20" version="1.1" xmlns="http://www.w3.org/2000/svg" xmlns:xlink="http://www.w3.org/1999/xlink">
    <g id="Symbols" stroke="none" stroke-width="1" fill="none" fill-rule="evenodd">
        <g id="event/mobile/bottom-block" transform="translate(-117.000000, -103.000000)" fill="#3F51B5">
            <g id="contacts" transform="translate(21.000000, 0.000000)">
                <g id="socials" transform="translate(0.000000, 101.000000)">
                    <g id="Group" transform="translate(96.000000, 2.000000)">
                        <path d="M18.4615385,15 C18.4615385,16.9084615 16.9084615,18.4615385 15,18.4615385 L5,18.4615385 C3.09153846,18.4615385 1.53846154,16.9084615 1.53846154,15 L1.53846154,5 C1.53846154,3.09153846 3.09153846,1.53846154 5,1.53846154 L15,1.53846154 C16.9084615,1.53846154 18.4615385,3.09153846 18.4615385,5 L18.4615385,15 Z M15,0 L5,0 C2.24307692,0 0,2.24307692 0,5 L0,15 C0,17.7569231 2.24307692,20 5,20 L15,20 C17.7569231,20 20,17.7569231 20,15 L20,5 C20,2.24307692 17.7569231,0 15,0 Z" id="Fill-22"></path>
                        <path d="M9.98307692,13.8630769 C7.85307692,13.8630769 6.12076923,12.13 6.12076923,10 C6.12076923,7.87 7.85307692,6.13692308 9.98307692,6.13692308 C12.1130769,6.13692308 13.8461538,7.87 13.8461538,10 C13.8461538,12.13 12.1130769,13.8630769 9.98307692,13.8630769 M9.98307692,4.59846154 C7.00461538,4.59846154 4.58230769,7.02153846 4.58230769,10 C4.58230769,12.9784615 7.00461538,15.4015385 9.98307692,15.4015385 C12.9615385,15.4015385 15.3846154,12.9784615 15.3846154,10 C15.3846154,7.02153846 12.9615385,4.59846154 9.98307692,4.59846154" id="Fill-24"></path>
                        <path d="M15.3846154,2.30769231 C14.9607692,2.30769231 14.6153846,2.65307692 14.6153846,3.07692308 C14.6153846,3.50076923 14.9607692,3.84615385 15.3846154,3.84615385 C15.8084615,3.84615385 16.1538462,3.50076923 16.1538462,3.07692308 C16.1538462,2.65307692 15.8084615,2.30769231 15.3846154,2.30769231" id="Fill-26"></path>
                    </g>
                </g>
            </g>
        </g>
    </g>
</svg>