
<svg width="14px" height="19px" viewBox="0 0 14 19" version="1.1" xmlns="http://www.w3.org/2000/svg" xmlns:xlink="http://www.w3.org/1999/xlink">
    <g id="Symbols" stroke="none" stroke-width="1" fill="none" fill-rule="evenodd">
        <g id="result-dashboard/tri" transform="translate(-42.000000, -248.000000)">
            <g id="1st-place" transform="translate(16.000000, 133.000000)">
                <g id="run" transform="translate(24.000000, 111.000000)">
                    <g id="ic_directions_run" transform="translate(0.000000, 3.000000)">
                        <g id="Icon-24px">
                            <polygon id="Shape" points="0 0 20 0 20 20 0 20"></polygon>
                            <path d="M11.2416667,4.56666667 C12.1583333,4.56666667 12.9083333,3.81666667 12.9083333,2.9 C12.9083333,1.98333333 12.1583333,1.23333333 11.2416667,1.23333333 C10.325,1.23333333 9.575,1.98333333 9.575,2.9 C9.575,3.81666667 10.325,4.56666667 11.2416667,4.56666667 L11.2416667,4.56666667 Z M8.24166667,16.15 L9.075,12.4833333 L10.825,14.15 L10.825,19.15 L12.4916667,19.15 L12.4916667,12.9 L10.7416667,11.2333333 L11.2416667,8.73333333 C12.325,9.98333333 13.9916667,10.8166667 15.825,10.8166667 L15.825,9.15 C14.2416667,9.15 12.9083333,8.31666667 12.2416667,7.15 L11.4083333,5.81666667 C11.075,5.31666667 10.575,4.98333333 9.99166667,4.98333333 C9.74166667,4.98333333 9.575,5.06666667 9.325,5.06666667 L4.99166667,6.9 L4.99166667,10.8166667 L6.65833333,10.8166667 L6.65833333,7.98333333 L8.15833333,7.4 L6.825,14.15 L2.74166667,13.3166667 L2.40833333,14.9833333 L8.24166667,16.15 L8.24166667,16.15 Z" id="Shape" fill-opacity="0.7" fill="#000000"></path>
                        </g>
                    </g>
                </g>
            </g>
        </g>
    </g>
</svg>