<svg width="20px" height="18px" viewBox="0 0 20 18" version="1.1" xmlns="http://www.w3.org/2000/svg" xmlns:xlink="http://www.w3.org/1999/xlink">
    <g id="Symbols" stroke="none" stroke-width="1" fill="none" fill-rule="evenodd" fill-opacity="0.7">
        <g id="result-dashboard/tri" transform="translate(-40.000000, -189.000000)" fill="#000000" fill-rule="nonzero">
            <g id="1st-place" transform="translate(16.000000, 133.000000)">
                <g id="swim" transform="translate(24.000000, 53.000000)">
                    <g transform="translate(0.000000, 3.000000)" id="Shape">
                        <path d="M0,15 C2.22,14 4.44,13 6.67,13 C8.89,13 11.11,15 13.33,15 C15.56,15 17.78,13 20,13 L20,16 C17.78,16 15.56,18 13.33,18 C11.11,18 8.89,16 6.67,16 C4.44,16 2.22,17 0,18 L0,15 Z M6.67,10 C5.89,10 5.12,10.12 4.35,10.32 L9.27,6.88 L8.23,5.64 C8.09,5.47 8,5.24 8,5 C8,4.66 8.17,4.35 8.44,4.17 L14.16,0.17 L15.31,1.8 L10.47,5.19 L15.7,11.42 C14.91,11.75 14.12,12 13.33,12 C11.11,12 8.89,10 6.67,10 Z M16,4 C17.1045695,4 18,4.8954305 18,6 C18,7.1045695 17.1045695,8 16,8 C14.8954305,8 14,7.1045695 14,6 C14,4.8954305 14.8954305,4 16,4 Z"></path>
                    </g>
                </g>
            </g>
        </g>
    </g>
</svg>