
<svg width="24px" height="20px" viewBox="0 0 24 20" version="1.1" xmlns="http://www.w3.org/2000/svg" xmlns:xlink="http://www.w3.org/1999/xlink">
    <g id="Symbols" stroke="none" stroke-width="1" fill="none" fill-rule="evenodd">
        <g id="event/mobile/bottom-block" transform="translate(-53.000000, -103.000000)" fill="#3F51B5">
            <g id="contacts" transform="translate(21.000000, 0.000000)">
                <g id="socials" transform="translate(0.000000, 101.000000)">
                    <path d="M55.8978096,4.33119468 C55.7778099,4.19679499 55.5810104,4.16079507 55.4202107,4.24079489 C55.2322112,4.33519467 54.8162121,4.46879437 54.3610131,4.5847941 C54.8226121,4.05439531 55.2082112,3.41279678 55.3618109,2.84639807 C55.4058108,2.68399844 55.3442109,2.51279883 55.2082112,2.41519905 C55.0706115,2.31759928 54.8882119,2.31679928 54.7506123,2.41119906 C54.442613,2.62079858 52.9954163,3.23599718 52.0978183,3.41439677 C50.9834209,2.437599 49.8786234,2 48.5394264,2 C47.5482287,2 46.6274308,2.27279938 45.5546332,2.88399798 C43.6426376,3.9735955 43.3530383,6.37119002 43.5178379,7.77678682 C38.23145,7.33598782 35.2690567,4.39039455 34.2226591,3.11439746 C34.1402593,3.01439769 34.0138596,2.95759781 33.8850599,2.96879779 C33.7554602,2.97839777 33.6386604,3.04879761 33.5714606,3.15999735 C32.8738622,4.30719474 32.6810626,5.5943918 33.0154619,6.88158886 C33.2250614,7.68878702 33.6170605,8.3991854 34.0586595,8.95438413 C33.7378602,8.78718451 33.4226609,8.574385 33.1530615,8.35998549 C33.0330618,8.26398571 32.8682622,8.24718574 32.7306625,8.31278559 C32.5922628,8.37998544 32.504263,8.51918512 32.504263,8.67278477 C32.504263,11.0007795 34.0738594,12.5895758 35.4266564,13.374374 C35.128257,13.3223742 34.8178577,13.2383744 34.5322584,13.1535745 C34.3810587,13.1087746 34.2178591,13.1559745 34.1154593,13.2751743 C34.0122596,13.393574 33.9890596,13.5623736 34.0546595,13.7047733 C34.8834576,15.4919692 36.5586538,16.8079662 38.4122495,17.2031653 C36.8106532,18.203163 34.5386584,18.7023619 32.4450632,18.4647624 C32.2578636,18.4463625 32.077064,18.5599622 32.0186641,18.7423618 C31.9610643,18.9239614 32.0402641,19.1215609 32.2082637,19.2135607 C34.6458581,20.5503577 37.1778524,21.1999562 39.948246,21.1999562 L39.965846,21.1999562 C43.8682371,21.1967562 47.5002288,19.52796 50.1914227,16.5023669 C52.6314171,13.7599732 53.9018142,10.2831811 53.6210148,7.15278824 C54.2802133,6.6871893 55.307411,5.78559136 55.9354096,4.81599357 C56.0338093,4.66479392 56.0186094,4.46559437 55.8978096,4.33119468" id="Fill-44"></path>
                </g>
            </g>
        </g>
    </g>
</svg>