
<svg width="24px" height="15px" viewBox="0 0 24 15" version="1.1" xmlns="http://www.w3.org/2000/svg" xmlns:xlink="http://www.w3.org/1999/xlink">
    <g id="Symbols" stroke="none" stroke-width="1" fill="none" fill-rule="evenodd">
        <g id="event/mobile/bottom-block" transform="translate(-85.000000, -105.000000)" fill="#3F51B5">
            <g id="contacts" transform="translate(21.000000, 0.000000)">
                <g id="socials" transform="translate(0.000000, 101.000000)">
                    <path d="M84.0208377,12.3831206 C84.198436,11.9615246 85.0800277,10.4855385 85.7984209,9.28474992 C87.5040047,6.43197695 88,5.54958532 88,5.19998863 C88,4.97919072 87.8208017,4.79999242 87.6000038,4.79999242 L83.2000455,4.79999242 C83.0048473,4.79999242 82.8384489,4.93999109 82.8056492,5.13198927 C82.5400517,6.66317476 79.0120852,10.9791339 78.4872901,11.1999318 C78.181693,11.1999318 78.0000948,10.6135373 78.0000948,9.63114664 L78.0008948,5.29358774 C78.0040947,4.91519133 78.0064947,4.58959441 77.7584971,4.33999678 C77.4353001,4.01359987 76.8657055,4 75.4953185,4 C72.9665425,4 72.069751,4.77919262 72.069751,5.44638629 C72.069751,5.6671842 72.2177496,5.84238254 72.4377475,5.84238254 C72.5633463,5.88958209 73.1977403,6.59197544 73.1977403,8.79835453 C73.1977403,11.1343324 72.804144,11.1999318 72.800144,11.1999318 C71.4017573,11.1999318 69.5905745,7.4399674 68.7785821,5.07038986 C68.7225827,4.90879139 68.5705841,4.79999242 68.4001857,4.79999242 L64.4002236,4.79999242 C64.2818248,4.79999242 64.1698258,4.85279192 64.0938265,4.94319106 C64.0178273,5.03359021 63.9858276,5.15358907 64.0058274,5.26958797 C64.569822,8.46635768 70.9289618,18.3998635 74.9913233,18.3998635 L77.0081042,18.3998635 C77.9504952,18.3998635 78.1128937,17.3582734 78.2424925,16.5206814 C78.3632913,15.7470887 78.4728903,15.1998939 78.8000872,15.1998939 C79.448881,15.1998939 80.6312698,16.3798827 81.4136624,17.1606753 C82.2752542,18.0198671 82.6720505,18.3998635 83.0608468,18.3998635 L85.5824229,18.3998635 C86.8792106,18.3998635 88,18.3998635 88,17.4766723 C88,17.1086758 87.5312044,16.5198814 85.8024208,14.5375001 C85.1288272,13.7663075 84.2240358,12.7295173 84.0208377,12.3831206" id="Fill-196"></path>
                </g>
            </g>
        </g>
    </g>
</svg>