<?xml version="1.0" encoding="UTF-8" standalone="no"?>
<svg width="24px" height="24px" viewBox="0 0 24 24" version="1.1" xmlns="http://www.w3.org/2000/svg" xmlns:xlink="http://www.w3.org/1999/xlink">
    <!-- Generator: Sketch 50.2 (55047) - http://www.bohemiancoding.com/sketch -->
    <title>VK_Color</title>
    <desc>Created with Sketch.</desc>
    <defs></defs>
    <g id="Symbols" stroke="none" stroke-width="1" fill="none" fill-rule="evenodd">
        <g id="event/user-results/run/share" transform="translate(-192.000000, -273.000000)">
            <g id="share" transform="translate(132.000000, 267.000000)">
                <g id="VK" transform="translate(60.000000, 6.000000)">
                    <path d="M0,12 C0,5.37258267 5.37258267,0 12,0 C18.6274173,0 24,5.37258267 24,12 C24,18.6274173 18.6274173,24 12,24 C5.37258267,24 0,18.6274173 0,12 Z" id="back" fill="#4C6C91"></path>
                    <path d="M12.6277312,15.53804 C12.6277312,15.53804 12.8587431,15.5128444 12.9770663,15.3880955 C13.0853726,15.2737934 13.0816164,15.0580944 13.0816164,15.0580944 C13.0816164,15.0580944 13.0672172,14.0508846 13.5436401,13.9021691 C14.0131765,13.7559116 14.6160612,14.8761944 15.2558827,15.3069779 C15.7391921,15.6326772 16.1060566,15.5613921 16.1060566,15.5613921 L17.815795,15.53804 C17.815795,15.53804 18.7097922,15.4839617 18.2859574,14.7938478 C18.2508986,14.7373113 18.0386682,14.2831758 17.0150789,13.3503238 C15.9426579,12.3738403 16.0866491,12.5317738 17.377561,10.842439 C18.1638779,9.8137207 18.4781542,9.18567407 18.3798646,8.91712575 C18.2865834,8.66025345 17.7081146,8.72846595 17.7081146,8.72846595 L15.7836416,8.74014197 C15.7836416,8.74014197 15.6409025,8.72109163 15.5351003,8.78315886 C15.4318023,8.84399703 15.3648152,8.98595278 15.3648152,8.98595278 C15.3648152,8.98595278 15.0605556,9.78176529 14.6542501,10.4589741 C13.7971898,11.8871349 13.4547412,11.9627217 13.3145064,11.8742299 C12.9883351,11.6671342 13.0697214,11.0433893 13.0697214,10.6003153 C13.0697214,9.21578589 13.28383,8.638745 12.6533992,8.48941493 C12.444299,8.43963824 12.2902911,8.40706831 11.7550196,8.40153757 C11.0682444,8.39477777 10.4872715,8.40399568 10.15797,8.56192912 C9.93885299,8.66701325 9.7698199,8.90176258 9.8731179,8.91528217 C10.0002057,8.9318744 10.288188,8.99148352 10.4409439,9.1955065 C10.6381491,9.4591386 10.6312626,10.0503136 10.6312626,10.0503136 C10.6312626,10.0503136 10.7445774,11.6800393 10.3664441,11.8822187 C10.10726,12.0211018 9.7516645,11.7378049 8.9872593,10.4417673 C8.595979,9.77807813 8.30048412,9.04433285 8.30048412,9.04433285 C8.30048412,9.04433285 8.24351371,8.90729332 8.14146781,8.83355007 C8.01813626,8.74444365 7.84597293,8.71678994 7.84597293,8.71678994 L6.01728532,8.72846595 C6.01728532,8.72846595 5.74245004,8.73584028 5.64165623,8.85321494 C5.5521313,8.95707001 5.6347697,9.172769 5.6347697,9.172769 C5.6347697,9.172769 7.06654257,12.4611032 8.68800813,14.1184826 C10.1748733,15.6375934 11.8627,15.53804 11.8627,15.53804 L12.6277312,15.53804 Z" id="Shape" fill="#FFFFFF"></path>
                </g>
            </g>
        </g>
    </g>
</svg>