<?xml version="1.0" encoding="UTF-8" standalone="no"?>
<svg width="32px" height="32px" viewBox="0 0 32 32" version="1.1" xmlns="http://www.w3.org/2000/svg" xmlns:xlink="http://www.w3.org/1999/xlink">
    <!-- Generator: Sketch 50.2 (55047) - http://www.bohemiancoding.com/sketch -->
    <title>VK_White</title>
    <desc>Created with Sketch.</desc>
    <defs></defs>
    <g id="Symbols" stroke="none" stroke-width="1" fill="none" fill-rule="evenodd">
        <g id="sidebar/login/active" transform="translate(-215.000000, -323.000000)" fill="#3F51B5">
            <g id="social-login" transform="translate(73.000000, 323.000000)">
                <g id="VK" transform="translate(142.000000, 0.000000)">
                    <path d="M0,16 C0,7.16344357 7.16344357,0 16,0 C24.8365564,0 32,7.16344357 32,16 C32,24.8365564 24.8365564,32 16,32 C7.16344357,32 0,24.8365564 0,16 Z M16.8369749,20.7173867 C16.8369749,20.7173867 17.1449908,20.6837926 17.302755,20.5174606 C17.4471635,20.3650579 17.4421551,20.0774592 17.4421551,20.0774592 C17.4421551,20.0774592 17.4229563,18.7345128 18.0581868,18.5362254 C18.6842353,18.3412155 19.4880816,19.8349259 20.341177,20.4093038 C20.9855895,20.8435696 21.4747421,20.7485228 21.4747421,20.7485228 L23.7543933,20.7173867 C23.7543933,20.7173867 24.9463896,20.6452822 24.3812765,19.7251304 C24.3345315,19.6497484 24.0515576,19.0442345 22.6867719,17.8004317 C21.2568772,16.4984538 21.4488654,16.7090317 23.1700814,14.4565853 C24.2185039,13.0849609 24.637539,12.2475654 24.5064862,11.889501 C24.3821112,11.5470046 23.6108195,11.6379546 23.6108195,11.6379546 L21.0448555,11.6535226 C21.0448555,11.6535226 20.8545367,11.6281222 20.7134671,11.7108785 C20.5757365,11.791996 20.4864202,11.9812704 20.4864202,11.9812704 C20.4864202,11.9812704 20.0807408,13.0423537 19.5390002,13.9452988 C18.396253,15.8495132 17.939655,15.9502957 17.7526752,15.8323065 C17.3177802,15.556179 17.4262952,14.7245191 17.4262952,14.1337537 C17.4262952,12.2877145 17.7117734,11.5183267 16.8711989,11.3192199 C16.5923987,11.252851 16.3870548,11.2094244 15.6733595,11.2020501 C14.7576593,11.193037 13.9830286,11.2053276 13.5439599,11.4159055 C13.251804,11.5560177 13.0264265,11.8690168 13.1641572,11.8870429 C13.3336077,11.9091659 13.7175841,11.9886447 13.9212585,12.2606753 C14.1841989,12.6121848 14.1750168,13.4004181 14.1750168,13.4004181 C14.1750168,13.4004181 14.3261032,15.5733857 13.8219255,15.8429583 C13.4763467,16.0281358 13.0022193,15.6504065 11.9830124,13.9223564 C11.4613053,13.0374375 11.0673122,12.0591105 11.0673122,12.0591105 C11.0673122,12.0591105 10.9913516,11.8763911 10.8552904,11.7780668 C10.6908483,11.6592582 10.4612972,11.6223866 10.4612972,11.6223866 L8.02304709,11.6379546 C8.02304709,11.6379546 7.65660005,11.647787 7.52220831,11.8042866 C7.40284173,11.94276 7.51302627,12.2303587 7.51302627,12.2303587 C7.51302627,12.2303587 9.42205676,16.6148042 11.5840108,18.8246435 C13.5664977,20.8501246 15.8169333,20.7173867 15.8169333,20.7173867 L16.8369749,20.7173867 Z" id="Combined-Shape"></path>
                </g>
            </g>
        </g>
    </g>
</svg>