
<svg width="18px" height="20px" viewBox="0 0 18 20" version="1.1" xmlns="http://www.w3.org/2000/svg" xmlns:xlink="http://www.w3.org/1999/xlink">
    <g id="Symbols" stroke="none" stroke-width="1" fill="none" fill-rule="evenodd" fill-opacity="0.7">
        <g id="event/weather" transform="translate(-259.000000, -99.000000)" fill="#000000" fill-rule="nonzero">
            <g id="2019" transform="translate(240.000000, 36.000000)">
                <g id="weather-sunny" transform="translate(19.000000, 63.000000)">
                    <path d="M9,5 C11.7614237,5 14,7.23857625 14,10 C14,12.7614237 11.7614237,15 9,15 C6.23857625,15 4,12.7614237 4,10 C4,7.23857625 6.23857625,5 9,5 Z M9,7 C7.34314575,7 6,8.34314575 6,10 C6,11.6568542 7.34314575,13 9,13 C10.6568542,13 12,11.6568542 12,10 C12,8.34314575 10.6568542,7 9,7 Z M9,0 L11.39,3.42 C10.65,3.15 9.84,3 9,3 C8.16,3 7.35,3.15 6.61,3.42 L9,0 Z M0.34,5 L4.5,4.65 C3.9,5.16 3.36,5.78 2.94,6.5 C2.5,7.24 2.25,8 2.11,8.79 L0.34,5 Z M0.36,15 L2.12,11.23 C2.26,12 2.53,12.78 2.95,13.5 C3.37,14.24 3.91,14.86 4.5,15.37 L0.36,15 Z M17.65,5 L15.88,8.79 C15.74,8 15.47,7.23 15.05,6.5 C14.63,5.78 14.1,5.15 13.5,4.64 L17.65,5 Z M17.64,15 L13.5,15.36 C14.09,14.85 14.62,14.22 15.04,13.5 C15.46,12.77 15.73,12 15.87,11.21 L17.64,15 Z M9,20 L6.59,16.56 C7.33,16.83 8.14,17 9,17 C9.82,17 10.63,16.83 11.37,16.56 L9,20 Z" id="Shape"></path>
                </g>
            </g>
        </g>
    </g>
</svg>