
<svg width="22px" height="21px" viewBox="0 0 22 21" version="1.1" xmlns="http://www.w3.org/2000/svg" xmlns:xlink="http://www.w3.org/1999/xlink">
    <g id="Symbols" stroke="none" stroke-width="1" fill="none" fill-rule="evenodd" fill-opacity="0.7">
        <g id="event/weather" transform="translate(-138.000000, -98.000000)" fill="#000000" fill-rule="nonzero">
            <g id="2017" transform="translate(129.000000, 36.000000)">
                <g id="weather-snowy" transform="translate(9.000000, 62.000000)">
                    <path d="M5,12 C5.55228475,12 6,12.4477153 6,13 C6,13.5522847 5.55228475,14 5,14 C3.67391755,14 2.40214799,13.4732158 1.46446609,12.5355339 C0.526784202,11.597852 -1.11022302e-16,10.3260824 -2.22044605e-16,9 C-4.4408921e-16,6.23857625 2.23857625,4 5,4 C6,1.65 8.3,0 11,0 C14.43,0 17.24,2.66 17.5,6.03 L18,6 C20.209139,6 22,7.790861 22,10 C22,12.209139 20.209139,14 18,14 L17,14 C16.4477153,14 16,13.5522847 16,13 C16,12.4477153 16.4477153,12 17,12 L18,12 C19.1045695,12 20,11.1045695 20,10 C20,8.8954305 19.1045695,8 18,8 L16,8 L16,7 C16,4.23857625 13.7614237,2 11,2 C8.5,2 6.45,3.82 6.06,6.19 C5.73,6.07 5.37,6 5,6 C3.34314575,6 2,7.34314575 2,9 C2,10.6568542 3.34314575,12 5,12 Z M6.88,16.07 L9.07,15.5 L7.46,13.88 C7.07,13.5 7.07,12.86 7.46,12.46 C7.85,12.07 8.5,12.07 8.88,12.46 L10.5,14.07 L11.07,11.88 C11.21,11.34 11.76,11.03 12.29,11.17 C12.83,11.31 13.14,11.86 13,12.4 L12.41,14.59 L14.6,14 C15.14,13.86 15.69,14.17 15.83,14.71 C15.97,15.24 15.66,15.79 15.12,15.93 L12.93,16.5 L14.54,18.12 C14.93,18.5 14.93,19.15 14.54,19.54 C14.15,19.93 13.5,19.93 13.12,19.54 L11.5,17.93 L10.93,20.12 C10.79,20.66 10.24,20.97 9.71,20.83 C9.17,20.69 8.86,20.14 9,19.6 L9.59,17.41 L7.4,18 C6.86,18.14 6.31,17.83 6.17,17.29 C6.03,16.76 6.34,16.21 6.88,16.07 Z" id="Shape"></path>
                </g>
            </g>
        </g>
    </g>
</svg>