
<svg width="22px" height="20px" viewBox="0 0 22 20" version="1.1" xmlns="http://www.w3.org/2000/svg" xmlns:xlink="http://www.w3.org/1999/xlink">
    <g id="Symbols" stroke="none" stroke-width="1" fill="none" fill-rule="evenodd" fill-opacity="0.7">
        <g id="event/weather" transform="translate(-197.000000, -99.000000)" fill="#000000" fill-rule="nonzero">
            <g id="2018" transform="translate(188.000000, 36.000000)">
                <g id="weather-rainy" transform="translate(9.000000, 63.000000)">
                    <path d="M5,12 C5.55228475,12 6,12.4477153 6,13 C6,13.5522847 5.55228475,14 5,14 C3.67391755,14 2.40214799,13.4732158 1.46446609,12.5355339 C0.526784202,11.597852 -1.11022302e-16,10.3260824 -2.22044605e-16,9 C-4.4408921e-16,6.23857625 2.23857625,4 5,4 C6,1.65 8.3,0 11,0 C14.43,0 17.24,2.66 17.5,6.03 L18,6 C20.209139,6 22,7.790861 22,10 C22,12.209139 20.209139,14 18,14 L17,14 C16.4477153,14 16,13.5522847 16,13 C16,12.4477153 16.4477153,12 17,12 L18,12 C19.1045695,12 20,11.1045695 20,10 C20,8.8954305 19.1045695,8 18,8 L16,8 L16,7 C16,4.23857625 13.7614237,2 11,2 C8.5,2 6.45,3.82 6.06,6.19 C5.73,6.07 5.37,6 5,6 C3.34314575,6 2,7.34314575 2,9 C2,10.6568542 3.34314575,12 5,12 Z M13.83,13.67 C15.39,15.23 15.39,17.5 13.83,19.08 C13.05,19.86 12,20 11,20 C10,20 8.95,19.86 8.17,19.08 C6.61,17.5 6.61,15.23 8.17,13.67 L11,9 L13.83,13.67 Z M12.41,14.69 L11,12.25 L9.59,14.69 C8.8,15.5 8.8,16.7 9.59,17.5 C10,17.93 10.5,18 11,18 C11.5,18 12,17.93 12.41,17.5 C13.2,16.7 13.2,15.5 12.41,14.69 Z" id="Shape"></path>
                </g>
            </g>
        </g>
    </g>
</svg>