
<svg width="24px" height="24px" viewBox="0 0 24 24" version="1.1" xmlns="http://www.w3.org/2000/svg" xmlns:xlink="http://www.w3.org/1999/xlink">
    <g id="Symbols" stroke="none" stroke-width="1" fill="none" fill-rule="evenodd" fill-opacity="0.7">
        <g id="event/weather" transform="translate(-22.000000, -95.000000)" fill="#000000" fill-rule="nonzero">
            <g id="2015" transform="translate(14.000000, 36.000000)">
                <g id="weather-partlycloudy" transform="translate(8.000000, 59.000000)">
                    <path d="M13.4171429,5.10857143 C16.1142857,6.28571429 17.5428571,9.17714286 17.0514286,11.9542857 C18.5028571,13.2114286 19.4285714,15.0742857 19.4285714,17.1428571 L19.4285714,17.3371429 C19.7828571,17.2114286 20.1714286,17.1428571 20.5714286,17.1428571 C22.4649763,17.1428571 24,18.6778809 24,20.5714286 C24,22.4649763 22.4649763,24 20.5714286,24 L5.71428571,24 C3.18955543,24 1.14285714,21.9533017 1.14285714,19.4285714 C1.14285714,16.9038411 3.18955543,14.8571429 5.71428571,14.8571429 L6.02285714,14.8571429 C4.57142857,13.0857143 4.11428571,10.56 5.14285714,8.29714286 C6.53714286,5.14285714 10.2514286,3.70285714 13.4171429,5.10857143 Z M12.4914286,7.2 C10.4685714,6.28571429 8.10285714,7.21142857 7.21142857,9.22285714 C6.68571429,10.3885714 6.77714286,11.68 7.32571429,12.72 C8.57142857,11.2342857 10.4685714,10.2857143 12.5714286,10.2857143 C13.3714286,10.2857143 14.1485714,10.4228571 14.8571429,10.6742857 C14.7885714,9.21142857 13.92,7.84 12.4914286,7.2 Z M14.3428571,3.01714286 C13.7142857,2.74285714 13.0857143,2.54857143 12.4342857,2.42285714 L15.28,0.937142857 L16.3085714,4.24 C15.7257143,3.76 15.0742857,3.34857143 14.3428571,3.01714286 Z M5.81714286,3.93142857 C5.25714286,4.33142857 4.76571429,4.78857143 4.34285714,5.29142857 L4.46857143,2.08 L7.85142857,2.85714286 C7.14285714,3.09714286 6.45714286,3.46285714 5.81714286,3.93142857 Z M19.4285714,9.95428571 C19.3257143,9.28 19.1771429,8.62857143 18.96,8 L21.68,9.71428571 L19.3371429,12.2628571 C19.4628571,11.52 19.4857143,10.7428571 19.4285714,9.95428571 Z M2.33142857,11.7714286 C2.41142857,12.4571429 2.56,13.1085714 2.77714286,13.7142857 L0.0685714286,12 L2.4,9.46285714 C2.28571429,10.2057143 2.25142857,10.9828571 2.33142857,11.7714286 Z M20.5714286,19.4285714 L17.1428571,19.4285714 L17.1428571,17.1428571 C17.1428571,14.6181269 15.0961589,12.5714286 12.5714286,12.5714286 C10.0466983,12.5714286 8,14.6181269 8,17.1428571 L5.71428571,17.1428571 C4.45192057,17.1428571 3.42857143,18.1662063 3.42857143,19.4285714 C3.42857143,20.6909366 4.45192057,21.7142857 5.71428571,21.7142857 L20.5714286,21.7142857 C21.2026111,21.7142857 21.7142857,21.2026111 21.7142857,20.5714286 C21.7142857,19.940246 21.2026111,19.4285714 20.5714286,19.4285714 Z" id="Shape"></path>
                </g>
            </g>
        </g>
    </g>
</svg>