
<svg width="22px" height="14px" viewBox="0 0 22 14" version="1.1" xmlns="http://www.w3.org/2000/svg" xmlns:xlink="http://www.w3.org/1999/xlink">
    <g id="Symbols" stroke="none" stroke-width="1" fill="none" fill-rule="evenodd" fill-opacity="0.7">
        <g id="event/weather" transform="translate(-82.000000, -105.000000)" fill="#000000" fill-rule="nonzero">
            <g id="2016" transform="translate(69.000000, 36.000000)">
                <g id="weather-cloudy" transform="translate(13.000000, 69.000000)">
                    <path d="M5,14 C3.67391755,14 2.40214799,13.4732158 1.46446609,12.5355339 C0.526784202,11.597852 -1.11022302e-16,10.3260824 -2.22044605e-16,9 C-1.55431223e-15,7.67391755 0.526784202,6.40214799 1.46446609,5.46446609 C2.40214799,4.5267842 3.67391755,4 5,4 C6,1.65 8.3,0 11,0 C14.43,0 17.24,2.66 17.5,6.03 L18,6 C20.209139,6 22,7.790861 22,10 C22,12.209139 20.209139,14 18,14 L5,14 Z M18,8 L16,8 L16,7 C16,4.23857625 13.7614237,2 11,2 C8.5,2 6.45,3.82 6.06,6.19 C5.73,6.07 5.37,6 5,6 C3.34314575,6 2,7.34314575 2,9 C2,10.6568542 3.34314575,12 5,12 L18,12 C19.1045695,12 20,11.1045695 20,10 C20,8.8954305 19.1045695,8 18,8 Z" id="Shape"></path>
                </g>
            </g>
        </g>
    </g>
</svg>